M48
;Layer_Color=9474304
;FILE_FORMAT=4:4
METRIC
;TYPE=PLATED
T01F00S00C1.0000
T02F00S00C2.5000
T03F00S00C3.0000
%
T01
X-00385600Y-00165000
X-00360200
X-00334800
X-00284000
X-00258600
X-00233200
X-00224600Y-00195000
X-00250000
X-00275400
X-00300800
X-00199200
X-00182400Y-00165000
X-00157000
X-00131600
X-00106200
X-00080800
X-00055400
X-00030000
X-00106200Y00038200
X-00131600
X-00157000
X-00182400
X-00207800
X-00284000
X-00309400
X-00334800
X-00360200
X-00385600
X-00390000Y00080000
X-00364600
X-00339200
X-00313800
T02
X-00025000Y-00205000
X-00520000Y00000000
X-00025000Y00205000
T03
X-00475000Y-00163000
Y00167000
X-00135000Y00165000
M30
